<svg xmlns="http://www.w3.org/2000/svg" width="1600" height="820" viewBox="0 0 1600 820"><defs><marker id="arrow-app" markerWidth="10" markerHeight="8" refX="9" refY="4" orient="auto"><path d="M0,0 L10,4 L0,8 Z" fill="#235A83"/></marker><marker id="arrow-control" markerWidth="10" markerHeight="8" refX="9" refY="4" orient="auto"><path d="M0,0 L10,4 L0,8 Z" fill="#167A69"/></marker><marker id="arrow-data" markerWidth="10" markerHeight="8" refX="9" refY="4" orient="auto"><path d="M0,0 L10,4 L0,8 Z" fill="#7251A1"/></marker><marker id="arrow-gate" markerWidth="10" markerHeight="8" refX="9" refY="4" orient="auto"><path d="M0,0 L10,4 L0,8 Z" fill="#B66D12"/></marker><marker id="arrow-risk" markerWidth="10" markerHeight="8" refX="9" refY="4" orient="auto"><path d="M0,0 L10,4 L0,8 Z" fill="#B94B46"/></marker><marker id="arrow-plain" markerWidth="10" markerHeight="8" refX="9" refY="4" orient="auto"><path d="M0,0 L10,4 L0,8 Z" fill="#687788"/></marker></defs><rect width="1600" height="820" fill="white"/><path d="M 330,195 L 435,195" fill="none" stroke="#687788" stroke-width="3" stroke-linejoin="round" marker-end="url(#arrow-plain)"/><path d="M 735,195 L 850,195" fill="none" stroke="#687788" stroke-width="3" stroke-linejoin="round" marker-end="url(#arrow-plain)"/><path d="M 1150,195 L 1255,195" fill="none" stroke="#687788" stroke-width="3" stroke-linejoin="round" marker-end="url(#arrow-plain)"/><path d="M 585,275 L 585,380 L 715,380 L 715,485" fill="none" stroke="#B94B46" stroke-width="3" stroke-linejoin="round" marker-end="url(#arrow-risk)"/><rect x="605.0" y="339" width="248" height="26" rx="5" fill="white"/><text x="729" y="359" font-family="Arial, sans-serif" font-size="18" font-weight="400" fill="#B94B46" text-anchor="middle"><tspan x="729" dy="0">deny skips later checks</tspan></text><path d="M 1000,275 L 1000,380 L 860,380 L 860,485" fill="none" stroke="#B94B46" stroke-width="3" stroke-linejoin="round" marker-end="url(#arrow-risk)"/><rect x="901.0" y="389" width="128" height="26" rx="5" fill="white"/><text x="965" y="409" font-family="Arial, sans-serif" font-size="18" font-weight="400" fill="#B94B46" text-anchor="middle"><tspan x="965" dy="0">rate denied</tspan></text><path d="M 1405,275 L 1405,340 L 1175,340 L 1175,557 L 1105,557" fill="none" stroke="#167A69" stroke-width="3" stroke-linejoin="round" marker-end="url(#arrow-control)"/><rect x="1181.0" y="298" width="138" height="26" rx="5" fill="white"/><text x="1250" y="318" font-family="Arial, sans-serif" font-size="18" font-weight="400" fill="#167A69" text-anchor="middle"><tspan x="1250" dy="0">final result</tspan></text><path d="M 460,557 L 330,557" fill="none" stroke="#687788" stroke-width="3" stroke-linejoin="round" marker-end="url(#arrow-plain)"/><rect x="356.0" y="514" width="78" height="26" rx="5" fill="white"/><text x="395" y="534" font-family="Arial, sans-serif" font-size="18" font-weight="400" fill="#687788" text-anchor="middle"><tspan x="395" dy="0">return</tspan></text><text x="42" y="45" font-family="Arial, sans-serif" font-size="24" font-weight="700" fill="#21384B" text-anchor="start"><tspan x="42" dy="0">An action can pass Cedar and still receive a final denial</tspan></text><rect x="40" y="120" width="290" height="155" rx="12" fill="#EEF4FA" stroke="#235A83" stroke-width="2"/><text x="58" y="152" font-family="Arial, sans-serif" font-size="23" font-weight="700" fill="#235A83" text-anchor="start"><tspan x="58" dy="0">Requested action</tspan></text><text x="58" y="183" font-family="Arial, sans-serif" font-size="20" font-weight="400" fill="#263D50" text-anchor="start"><tspan x="58" dy="0">Principal, action,</tspan><tspan x="58" dy="25.0">resource</tspan><tspan x="58" dy="25.0">Capability check in</tspan><tspan x="58" dy="25.0">caller</tspan></text><rect x="435" y="120" width="300" height="155" rx="12" fill="#EAF7F3" stroke="#167A69" stroke-width="2"/><text x="453" y="152" font-family="Arial, sans-serif" font-size="23" font-weight="700" fill="#167A69" text-anchor="start"><tspan x="453" dy="0">Cedar decision</tspan></text><text x="453" y="183" font-family="Arial, sans-serif" font-size="20" font-weight="400" fill="#263D50" text-anchor="start"><tspan x="453" dy="0">Static policy evaluation</tspan><tspan x="453" dy="25.0">Allow or Deny</tspan></text><rect x="850" y="120" width="300" height="155" rx="12" fill="#EAF7F3" stroke="#167A69" stroke-width="2"/><text x="868" y="152" font-family="Arial, sans-serif" font-size="23" font-weight="700" fill="#167A69" text-anchor="start"><tspan x="868" dy="0">Temporal check</tspan></text><text x="868" y="183" font-family="Arial, sans-serif" font-size="20" font-weight="400" fill="#263D50" text-anchor="start"><tspan x="868" dy="0">ApprovePayment only</tspan><tspan x="868" dy="25.0">Read vendor decision</tspan><tspan x="868" dy="25.0">history</tspan></text><rect x="1255" y="120" width="300" height="155" rx="12" fill="#EAF7F3" stroke="#167A69" stroke-width="2"/><text x="1273" y="152" font-family="Arial, sans-serif" font-size="23" font-weight="700" fill="#167A69" text-anchor="start"><tspan x="1273" dy="0">Stop state check</tspan></text><text x="1273" y="183" font-family="Arial, sans-serif" font-size="20" font-weight="400" fill="#263D50" text-anchor="start"><tspan x="1273" dy="0">Only if still allowed</tspan><tspan x="1273" dy="25.0">Query control plane</tspan></text><rect x="460" y="485" width="645" height="145" rx="12" fill="#F3F0FA" stroke="#7251A1" stroke-width="2"/><text x="478" y="517" font-family="Arial, sans-serif" font-size="23" font-weight="700" fill="#7251A1" text-anchor="start"><tspan x="478" dy="0">Record final decision</tspan></text><text x="478" y="548" font-family="Arial, sans-serif" font-size="20" font-weight="400" fill="#263D50" text-anchor="start"><tspan x="478" dy="0">Persist decision log | Emit metric | Attempt audit append</tspan><tspan x="478" dy="25.0">Return final decision plus original cedar_decision</tspan></text><rect x="40" y="485" width="290" height="145" rx="12" fill="#FFF4E4" stroke="#B66D12" stroke-width="2"/><text x="58" y="517" font-family="Arial, sans-serif" font-size="23" font-weight="700" fill="#B66D12" text-anchor="start"><tspan x="58" dy="0">Caller behavior</tspan></text><text x="58" y="548" font-family="Arial, sans-serif" font-size="20" font-weight="400" fill="#263D50" text-anchor="start"><tspan x="58" dy="0">Final Allow: proceed</tspan><tspan x="58" dy="25.0">Final Deny: block /</tspan><tspan x="58" dy="25.0">escalate</tspan></text><rect x="1240" y="465" width="315" height="180" rx="12" fill="#FFF0EE" stroke="#B94B46" stroke-width="2"/><text x="1258" y="497" font-family="Arial, sans-serif" font-size="23" font-weight="700" fill="#B94B46" text-anchor="start"><tspan x="1258" dy="0">Outage distinctions</tspan></text><text x="1258" y="528" font-family="Arial, sans-serif" font-size="20" font-weight="400" fill="#263D50" text-anchor="start"><tspan x="1258" dy="0">Policy request failure:</tspan><tspan x="1258" dy="25.0">deny</tspan><tspan x="1258" dy="25.0">Stop service failure: no</tspan><tspan x="1258" dy="25.0">extra denial in policy</tspan><tspan x="1258" dy="25.0">service</tspan></text><rect x="42" y="696" width="1515" height="50" rx="8" fill="#FFF4E4"/><text x="58" y="724" font-family="Arial, sans-serif" font-size="20" font-weight="400" fill="#B66D12" text-anchor="start"><tspan x="58" dy="0">Scenario 20: Cedar remained Allow on the fourth vendor approval, while the temporal layer changed the final decision to Deny.</tspan></text><circle cx="45" cy="787" r="6" fill="#235A83"/><text x="60" y="794" font-family="Arial, sans-serif" font-size="17" font-weight="400" fill="#526477" text-anchor="start"><tspan x="60" dy="0">Application</tspan></text><circle cx="345" cy="787" r="6" fill="#167A69"/><text x="360" y="794" font-family="Arial, sans-serif" font-size="17" font-weight="400" fill="#526477" text-anchor="start"><tspan x="360" dy="0">Control</tspan></text><circle cx="645" cy="787" r="6" fill="#7251A1"/><text x="660" y="794" font-family="Arial, sans-serif" font-size="17" font-weight="400" fill="#526477" text-anchor="start"><tspan x="660" dy="0">Data or storage</tspan></text><circle cx="945" cy="787" r="6" fill="#B66D12"/><text x="960" y="794" font-family="Arial, sans-serif" font-size="17" font-weight="400" fill="#526477" text-anchor="start"><tspan x="960" dy="0">Decision or condition</tspan></text><circle cx="1245" cy="787" r="6" fill="#B94B46"/><text x="1260" y="794" font-family="Arial, sans-serif" font-size="17" font-weight="400" fill="#526477" text-anchor="start"><tspan x="1260" dy="0">Stop or limitation</tspan></text></svg>